<svg xmlns="http://www.w3.org/2000/svg" viewBox="0 0 500 500" width="500" height="500">
  <style>
    .st0{fill:#f8f9fa}.st1{fill:#e9ecef}.st2{fill:#dee2e6}.st3{fill:#ced4da}.st4{fill:#adb5bd}.st5{fill:#6c757d}.st6{fill:#495057}.st7{fill:#0d6efd}
  </style>
  <g id="OBJECTS">
    <path class="st3" d="M425.1 361.5c-9.1 0-18.2-.4-27.2-1.2-68.9-6-132.1-37.1-178.1-87.4-46-50.3-71.4-115.6-71.4-184.1V69.9c0-3 2.2-5.4 5-5.9 99.8-15.3 205.8 15.2 280.3 81-.3-.6-.8-1.1-1.1-1.7-1.3-2.6-.3-5.8 2.4-7.1 2.6-1.3 5.8-.3 7.1 2.4 6.7 13.3 12.6 27.1 17.5 41.2C471 207.3 476 236 476 265c0 26.6-5.1 53-15.3 77.8-9.5 23.2-23.3 44.3-40.9 62.5-13.3 13.8-33 13.2-46.4-3.4-41.6-51.4-64.6-116-64.6-182v-63.2c0-2.9 2.3-5.3 5.3-5.3 25.3 0 50.6 4.9 74 14.5 39.6 16.2 74.2 43.3 100.1 78.3-12-74.9-50.6-142.2-107.7-189.2 0 0-9.7-8-23.9-17.8-32.5-22.4-76.6-24.8-111.4-6C219.3 49.1 181.6 81.1 157 121.8c-24.5 40.7-37.5 87.5-37.5 135.2 0 30.4 5.2 60.1 15.5 88.5 9.9 27.1 24.3 51.6 43 73.2-13.1 5.4-27.6 8.2-42.1 8.2-31.2 0-61.9-13.8-83.5-36.2-2.1-2.1-2-5.5.1-7.6 2.1-2.1 5.5-2 7.6.1 19.3 20 46.6 32.5 74.4 34.8-43.4-55.4-66.9-125-66.9-197.1 0-66.2 20.2-130 58.3-184.1 1.8-2.3 5-2.8 7.4-1.1 2.3 1.8 2.8 5 1.1 7.4-36.8 52.4-56.2 114.1-56.2 177.8 0 17.2 1.4 34.4 4.2 51.3 7.6-35.3 36.9-88.9 106.7-142.6 2.3-1.8 5.6-1.3 7.4 1 1.8 2.3 1.3 5.6-1 7.4-83.2 64.3-105.8 126.1-107.8 154.9 10.6 45.8 32.5 87.9 63.6 122.4 1.5-8 4.7-15.8 9.4-22.7 6.1-9.2 14.5-16.7 24.3-21.9-39.8-59.9-61-130-61-202.3 0-27.3 3-54.5 8.8-81 .7-3 3.6-4.8 6.6-4.1 3 .7 4.8 3.6 4.1 6.6-5.7 25.5-8.6 51.7-8.6 78.1 0 82.5 26.3 160.1 75.9 224.2 15.5-3.7 31.8-2.6 46.7 3.2 17.7 6.9 32.3 19.5 41.2 35.6 8.9 16.1 11.1 34.6 6.3 52.2 22.8 15.8 47.5 28.6 73.6 38.2 27.3 10 55.9 15.7 85 16.9 3.1.1 5.5 2.7 5.4 5.8-.1 3.1-2.7 5.5-5.8 5.4-30.3-1.3-60.2-7.2-88.6-17.7-26.5-9.7-51.8-22.7-75.1-38.6-14.1 31.8-47.2 51.5-82.4 48.2z"/>
    <path class="st7" d="M334.3 233.5c1.1 0 2.2-.4 3.1-1.1 2.3-1.8 2.7-5.1.9-7.4-10.4-13.2-24.2-22.9-39.8-27.9-3-.9-6.1 .7-7 3.7-.9 3 .7 6.1 3.7 7 13.2 4.2 24.9 12.5 33.8 23.6 1 1.3 2.6 2.1 4.3 2.1zm-78.9-30.9c.8 0 1.6-.2 2.4-.5 14.2-7 30-10.6 45.9-10.6 3.1 0 5.6-2.5 5.6-5.6s-2.5-5.6-5.6-5.6c-17.9 0-35.8 4.1-51.8 12-2.8 1.4-3.9 4.7-2.5 7.5 1 1.9 2.9 2.8 4.9 2.8h.1z"/>
    <ellipse transform="rotate(-76.714 308.004 304.657)" class="st7" cx="308" cy="304.7" rx="5.6" ry="5.6"/>
    <path class="st2" d="M425.1 378.7c-29.6 0-58.6-10.7-81.2-30.1-45.2-38.7-64.2-100.7-48.8-160.5 .8-3 3.8-4.8 6.8-4 3 .8 4.8 3.8 4 6.8-14 54.7 3.3 111.3 44.7 146.5 20.6 17.7 46.8 27.4 73.8 27.4 31.1 0 60.4-12.6 82.2-35.6 2.1-2.2 5.5-2.3 7.7-.2 2.2 2.1 2.3 5.5 .2 7.7-24 25.1-57.3 38.9-92.3 38h-1.1z"/>
    <path class="st4" d="M359.9 263.5c-2 0-3.9-1.1-4.9-3-9.8-19.3-25.9-34.2-45.8-42.5-3-1.2-4.4-4.5-3.2-7.4 1.2-3 4.5-4.4 7.4-3.2 22.4 9.3 40.7 26.1 51.6 47.9 1.4 2.8 .3 6.1-2.5 7.5-.8 .5-1.7 .7-2.6 .7zM264.8 238.5c-1.5 0-3-.6-4.1-1.7-29.8-31.7-71.6-49.9-115.2-49.9-3.1 0-5.6-2.5-5.6-5.6s2.5-5.6 5.6-5.6c47.8 0 93.4 19.8 126 54.3 2.1 2.2 2 5.6-.2 7.7-1.1 1.1-2.5 1.5-3.8 1.5-.2 0-.5-.1-.7-.1zm-71.1-8.2c-1.7 0-3.4-.8-4.5-2.2-1.8-2.3-1.4-5.6 .9-7.4 2.3-1.8 5.6-1.4 7.4 .9 1.8 2.3 1.4 5.6-.9 7.4-.8 .8-2 1.2-3 1.3h.1z"/>
    <path class="st6" d="M231.4 318.1c-2.7 0-5.1-2-5.5-4.8-.5-3.1 1.6-5.9 4.7-6.4l48.3-7.5c3.1-.5 5.9 1.6 6.4 4.7 .5 3.1-1.6 5.9-4.7 6.4l-48.3 7.5c-.3 .1-.6 .1-.9 .1zm8.5 14.2c-2.7 0-5.1-2-5.5-4.8-.5-3.1 1.6-5.9 4.7-6.4l30.8-4.8c3-.5 5.9 1.6 6.4 4.7 .5 3.1-1.6 5.9-4.7 6.4l-30.8 4.8c-.3 .1-.6 .1-.9 .1zm.1 19.3c-2.7 0-5.1-2-5.5-4.8-.5-3.1 1.6-5.9 4.7-6.4l30.8-4.8c3-.5 5.9 1.6 6.4 4.7 .5 3.1-1.6 5.9-4.7 6.4l-30.8 4.8c-.3 .1-.6 .1-.9 .1z"/>
    <path class="st7" d="M327.3 200.9c-.8 0-1.6-.2-2.4-.5-15.8-7.7-33.4-11.8-51.2-11.8-3.1 0-5.6 2.5-5.6 5.6s2.5 5.6 5.6 5.6c16 0 31.8 3.7 46 10.6 2.8 1.4 4 4.7 2.6 7.4-1 2-2.9 2.9-5 2.9v.1zm-42.7-29.4c-10.3 0-18.6-8.4-18.6-18.6s8.4-18.6 18.6-18.6 18.6 8.4 18.6 18.6-8.3 18.6-18.6 18.6zm0-26.1c-4.1 0-7.5 3.4-7.5 7.5s3.4 7.5 7.5 7.5 7.5-3.4 7.5-7.5-3.4-7.5-7.5-7.5z"/>
    <path class="st7" d="M245.6 186.5c-10.3 0-18.6-8.4-18.6-18.6s8.4-18.6 18.6-18.6 18.6 8.4 18.6 18.6c.1 10.2-8.3 18.6-18.6 18.6zm0-26.1c-4.1 0-7.5 3.4-7.5 7.5s3.4 7.5 7.5 7.5 7.5-3.4 7.5-7.5-3.4-7.5-7.5-7.5zm70.5 101.1c-28.5 0-51.7-23.2-51.7-51.7 0-28.5 23.2-51.7 51.7-51.7s51.7 23.2 51.7 51.7c0 28.5-23.2 51.7-51.7 51.7zm0-92.3c-22.4 0-40.6 18.2-40.6 40.6s18.2 40.6 40.6 40.6 40.6-18.2 40.6-40.6-18.2-40.6-40.6-40.6z"/>
    <path class="st5" d="M316.1 213.2c-3.1 0-5.6-2.5-5.6-5.6 0-8.7-5.9-16.1-14.3-18.2-3-.8-4.8-3.8-4.1-6.8 .8-3 3.8-4.8 6.8-4.1 13.8 3.5 23.4 15.7 23.4 29.9 .1 3-2.4 5.5-5.5 5.6-.1 0-.1 0-.2 0-.3 0-.3 0-.5 .2z"/>
    <path class="st6" d="M316.1 264.9c-18.4 0-33.4-15-33.4-33.4s15-33.4 33.4-33.4c3.1 0 5.6 2.5 5.6 5.6s-2.5 5.6-5.6 5.6c-12.3 0-22.3 10-22.3 22.3s10 22.3 22.3 22.3c12.1 0 22-9.7 22.3-21.8 .1-3.1 2.6-5.5 5.7-5.4 3.1 .1 5.5 2.6 5.4 5.7-.5 18.1-15.3 32.5-33.4 32.5z"/>
    <path class="st3" d="M219.9 235.3c-6.3 0-11.5-5.1-11.5-11.5 0-6.3 5.1-11.5 11.5-11.5 6.3 0 11.5 5.1 11.5 11.5 0 6.3-5.2 11.5-11.5 11.5zm0-11.9c-.3 0-.5 .2-.5 .5 0 .3 .2 .5 .5 .5 .3 0 .5-.2 .5-.5 0-.3-.2-.5-.5-.5z"/>
    <path class="st1" d="M219.9 252.2c-1.7 0-3.3-.2-4.9-.5-3-.6-5-3.6-4.4-6.6 .6-3 3.6-5 6.6-4.4 .9 .2 1.8 .3 2.8 .3 7.9 0 14.3-6.4 14.3-14.3 0-3.1 2.5-5.6 5.6-5.6s5.6 2.5 5.6 5.6c-.1 16.3-11.6 25.5-25.6 25.5z"/>
    <ellipse transform="rotate(-14.898 338.82 348.71)" class="st1" cx="338.8" cy="348.7" rx="5.6" ry="5.6"/>
    <path class="st3" d="M168.8 226.7c-12.6 0-22.8-10.2-22.8-22.8s10.2-22.8 22.8-22.8c3.1 0 5.6 2.5 5.6 5.6s-2.5 5.6-5.6 5.6c-6.4 0-11.7 5.2-11.7 11.7s5.2 11.7 11.7 11.7c3.1 0 5.6 2.5 5.6 5.6s-2.5 5.6-5.6 5.6c-.1-.1-.1-.1 0-.2z"/>
  </g>
</svg>
